<?xml version="1.0" encoding="iso-8859-1"?>
<!-- Generator: Adobe Illustrator 16.0.0, SVG Export Plug-In . SVG Version: 6.00 Build 0)  -->
<!DOCTYPE svg PUBLIC "-//W3C//DTD SVG 1.1//EN" "http://www.w3.org/Graphics/SVG/1.1/DTD/svg11.dtd">
<svg xmlns="http://www.w3.org/2000/svg" xmlns:xlink="http://www.w3.org/1999/xlink" version="1.1" id="Capa_1" x="0px" y="0px" width="512px" height="512px" viewBox="0 0 83.816 83.816" style="enable-background:new 0 0 83.816 83.816;" xml:space="preserve">
<g>
	<path d="M46.172,51.007l9.444,9.444l-5.21,5.21l-9.445-9.444l2.403-2.402L46.172,51.007z M51.518,35.736l1.888,1.885l3.03-3.032   l-1.887-1.886L51.518,35.736z M51.467,21.582l-1.289,3.921L63.365,38.69l5.21-5.21L55.389,20.293L51.467,21.582z M29.583,39.63   c1.043-1.043,1.81-2.292,2.277-3.71c1.124-3.41,0.251-7.1-2.277-9.628c-2.014-2.015-4.835-3.003-7.655-2.709l1.904,1.905   c0.116,0.116,0.202,0.258,0.25,0.415l1.533,5.022c0.108,0.354,0.012,0.738-0.25,0.999l-3.489,3.489   c-0.261,0.261-0.646,0.356-0.999,0.25l-5.022-1.533c-0.157-0.048-0.299-0.134-0.415-0.25l-1.906-1.905   c-0.295,2.802,0.675,5.621,2.71,7.656c1.778,1.774,4.142,2.752,6.657,2.752c1.012,0,2.012-0.16,2.972-0.476   c1.064-0.351,2.033-0.87,2.89-1.547C29.049,40.134,29.323,39.89,29.583,39.63z M83.816,41.909   c0,23.146-18.764,41.907-41.908,41.907C18.763,83.816,0,65.055,0,41.909C0,18.764,18.762,0,41.908,0   C65.055,0,83.816,18.763,83.816,41.909z M70.987,33.482c0-0.265-0.104-0.519-0.293-0.707l-14.33-14.329   c-0.267-0.266-0.661-0.359-1.021-0.243l-4.986,1.638c-0.301,0.099-0.537,0.336-0.637,0.638l-1.639,4.986   c-0.117,0.358-0.023,0.752,0.243,1.019l4.808,4.808l-3.031,3.032l-0.955-0.955c-0.375-0.375-1.039-0.375-1.414,0l-8.188,8.188   l-5.629-5.629c1.068-3.954-0.006-8.135-2.92-11.049c-2.159-2.159-5.028-3.347-8.081-3.347c-1.12,0-2.23,0.162-3.3,0.484   c-0.337,0.101-0.596,0.372-0.682,0.713c-0.086,0.341,0.014,0.702,0.263,0.951l3.044,3.045l1.285,4.209l-2.639,2.639l-4.209-1.285   l-3.045-3.044c-0.249-0.249-0.611-0.348-0.951-0.263c-0.341,0.086-0.612,0.345-0.713,0.682c-1.214,4.041-0.117,8.402,2.862,11.381   c2.154,2.153,5.02,3.341,8.07,3.341c1.015,0,2.018-0.142,2.994-0.404l5.614,5.615L20.817,60.285   c-0.188,0.188-0.293,0.441-0.293,0.707c0,0.265,0.105,0.52,0.293,0.707l6.625,6.624c0.195,0.194,0.451,0.293,0.707,0.293   c0.256,0,0.512-0.099,0.707-0.293l10.69-10.691l10.148,10.153c0.187,0.188,0.442,0.293,0.706,0.293c0.266,0,0.52-0.104,0.707-0.293   l6.625-6.625c0.391-0.393,0.391-1.021,0-1.414l-10.15-10.152l8.188-8.187c0.392-0.391,0.392-1.023,0-1.414l-0.955-0.955   l3.033-3.032l4.809,4.807c0.195,0.195,0.451,0.293,0.707,0.293s0.512-0.098,0.707-0.293l6.625-6.624   C70.883,34.002,70.987,33.747,70.987,33.482z M38.133,42.969l-4.965-4.965c-0.151,0.31-0.319,0.61-0.497,0.904   c-0.041,0.068-0.087,0.132-0.13,0.199c-0.173,0.272-0.357,0.536-0.553,0.792c-0.065,0.085-0.131,0.172-0.2,0.256   c-0.249,0.307-0.508,0.605-0.791,0.888c-0.282,0.283-0.582,0.542-0.888,0.791c-0.084,0.068-0.17,0.135-0.256,0.2   c-0.256,0.196-0.521,0.381-0.792,0.554c-0.067,0.042-0.131,0.088-0.198,0.129c-0.293,0.178-0.594,0.346-0.904,0.497l4.964,4.966   L38.133,42.969z M52.695,39.744l0.953,0.955L41.893,52.456l-3.054,3.054v0.002l-10.69,10.689l-5.21-5.21l10.689-10.69l6.625-6.625   c0.001,0,0.001,0,0.001,0l8.188-8.187l0.955,0.955L52.695,39.744z M42.071,48.979c-0.391-0.392-1.023-0.392-1.414,0L26.78,62.857   c-0.391,0.391-0.391,1.021,0,1.414c0.195,0.194,0.451,0.293,0.707,0.293c0.256,0,0.512-0.099,0.707-0.293l13.877-13.879   C42.462,50.002,42.462,49.37,42.071,48.979z" fill="#bbc520"/>
</g>
<g>
</g>
<g>
</g>
<g>
</g>
<g>
</g>
<g>
</g>
<g>
</g>
<g>
</g>
<g>
</g>
<g>
</g>
<g>
</g>
<g>
</g>
<g>
</g>
<g>
</g>
<g>
</g>
<g>
</g>
</svg>
